<?xml version="1.0" standalone="no"?>
<!DOCTYPE svg PUBLIC "-//W3C//DTD SVG 20010904//EN"
 "http://www.w3.org/TR/2001/REC-SVG-20010904/DTD/svg10.dtd">
<svg version="1.0" xmlns="http://www.w3.org/2000/svg"
 width="300.000000pt" height="200.000000pt" viewBox="0 0 300.000000 200.000000"
 preserveAspectRatio="xMidYMid meet">
<metadata>
Created by potrace 1.10, written by Peter Selinger 2001-2011
</metadata>
<g transform="translate(0.000000,200.000000) scale(0.100000,-0.100000)"
fill="#000000" stroke="none">
<path d="M811 1932 c-16 -9 -63 -59 -103 -111 -169 -218 -205 -265 -335 -436
-75 -99 -190 -248 -256 -332 -99 -127 -118 -157 -115 -181 3 -29 5 -27 64 47
54 67 300 389 380 495 16 22 23 37 17 32 -7 -4 -13 -4 -13 1 1 11 60 79 60 68
0 -5 -10 -19 -22 -32 -12 -13 -17 -23 -12 -23 5 0 18 13 28 28 11 15 31 43 45
61 14 19 20 32 14 27 -7 -4 -13 -3 -13 2 0 13 25 33 32 26 3 -3 20 13 37 34
17 22 28 42 24 45 -3 4 2 9 11 13 9 3 14 10 11 15 -3 4 4 13 15 19 11 6 18 15
15 19 -3 5 1 11 9 14 8 3 39 40 70 81 33 45 63 76 74 76 9 0 38 -7 64 -15 26
-8 130 -32 230 -55 101 -22 219 -52 263 -67 67 -21 192 -79 243 -112 11 -6 -1
-31 -50 -107 -36 -55 -118 -187 -183 -294 -64 -107 -121 -199 -125 -204 -5 -4
-39 10 -77 33 -38 23 -73 41 -78 41 -5 0 25 -20 67 -45 55 -32 76 -49 72 -60
-4 -9 -1 -15 7 -15 8 1 99 142 202 315 133 221 193 312 203 308 8 -3 14 -8 14
-11 0 -15 -52 -112 -58 -108 -8 5 -186 -283 -252 -409 -23 -44 -47 -86 -53
-93 -7 -8 -7 -16 0 -23 9 -9 122 170 167 266 10 22 20 35 23 28 2 -6 -6 -30
-19 -54 -13 -23 -29 -53 -37 -68 -8 -14 -17 -28 -20 -31 -3 -3 -19 -31 -36
-62 -16 -32 -33 -58 -37 -58 -3 0 -9 -14 -13 -30 -8 -34 -13 -37 -30 -13 -12
16 -14 16 -29 0 -15 -15 -15 -17 4 -27 20 -10 28 -40 12 -40 -5 0 -23 -27 -41
-60 -17 -34 -44 -80 -59 -103 -15 -23 -37 -62 -49 -86 -32 -65 -147 -208 -151
-188 -2 10 -10 17 -18 17 -16 0 -19 -16 -4 -25 6 -4 8 -15 5 -26 -4 -10 -2
-19 2 -19 25 0 133 142 203 265 18 33 86 150 150 260 64 110 131 226 149 258
18 31 37 57 42 57 14 0 116 143 161 226 35 64 39 79 29 97 -7 14 -10 15 -6 4
6 -22 -20 -75 -92 -186 -61 -94 -90 -128 -99 -118 -10 10 5 57 19 57 15 1 66
76 108 159 29 60 36 80 38 107 1 6 35 17 77 24 138 24 252 -4 664 -163 129
-50 243 -97 254 -106 10 -9 22 -26 27 -38 5 -13 15 -23 23 -23 11 0 11 8 -5
40 -19 39 -71 75 -139 95 -14 4 -38 13 -55 21 -140 62 -397 154 -515 183 -110
28 -166 32 -252 19 l-76 -11 -41 34 c-92 80 -277 149 -511 192 -41 8 -84 19
-95 25 -5 3 -18 7 -30 8 -11 1 -47 9 -80 18 -97 24 -112 25 -144 8z m-368
-504 c-6 -7 -55 -72 -109 -144 -95 -125 -192 -243 -163 -198 38 59 268 354
276 354 3 0 1 -6 -4 -12z m-343 -448 c-56 -72 -97 -116 -75 -79 13 22 126 159
131 159 2 0 -23 -36 -56 -80z"/>
<path d="M1034 1314 c38 -13 71 -22 73 -20 5 5 -116 46 -131 45 -6 0 20 -11
58 -25z"/>
<path d="M1845 1324 c28 -7 55 -13 60 -13 17 2 -69 27 -90 27 -11 0 3 -6 30
-14z"/>
<path d="M1999 1279 c30 -10 56 -17 58 -15 5 5 -86 36 -101 35 -6 0 13 -9 43
-20z"/>
<path d="M2589 1254 c30 -13 56 -23 58 -20 4 4 -92 46 -104 45 -4 0 16 -11 46
-25z"/>
<path d="M1171 1266 c10 -9 109 -56 109 -51 0 5 -95 55 -106 55 -4 0 -5 -2 -3
-4z"/>
<path d="M2105 1241 c22 -10 51 -21 65 -25 14 -3 7 2 -15 13 -22 10 -51 21
-65 25 -14 3 -7 -2 15 -13z"/>
<path d="M2250 1257 c0 -7 131 -59 136 -54 3 2 -19 13 -48 25 -29 11 -61 23
-70 27 -10 4 -18 5 -18 2z"/>
<path d="M2421 1256 c8 -8 133 -56 136 -52 2 2 -26 15 -62 30 -62 25 -84 31
-74 22z"/>
<path d="M2697 1123 c-158 -388 -432 -1035 -463 -1095 -12 -23 -12 -28 -1 -28
13 0 103 177 146 286 11 28 29 73 41 100 12 27 26 58 31 69 5 11 45 110 90
220 102 253 196 481 215 522 8 17 14 38 14 47 0 40 -21 6 -73 -121z"/>
<path d="M1735 1220 c49 -11 91 -18 93 -16 5 6 -133 36 -160 35 -13 0 17 -9
67 -19z"/>
<path d="M1005 1185 c49 -19 91 -32 93 -30 5 4 -154 65 -170 65 -7 -1 27 -16
77 -35z"/>
<path d="M1141 1206 c10 -9 109 -56 109 -51 0 5 -95 55 -106 55 -4 0 -5 -2 -3
-4z"/>
<path d="M2210 1201 c8 -5 83 -36 165 -69 188 -76 216 -90 222 -113 7 -25 19
-24 19 0 0 11 -3 19 -6 18 -3 -1 -17 6 -31 16 -24 16 -366 157 -379 157 -3 0
2 -5 10 -9z"/>
<path d="M1904 1174 c38 -13 71 -22 73 -20 5 5 -116 46 -131 45 -6 0 20 -11
58 -25z"/>
<path d="M2400 1196 c0 -2 37 -18 83 -36 45 -18 86 -37 92 -42 13 -11 32 -11
20 1 -8 8 -182 81 -192 81 -2 0 -3 -2 -3 -4z"/>
<path d="M1604 1179 c38 -5 96 -16 129 -25 32 -8 61 -13 63 -11 9 8 -130 38
-195 42 l-66 4 69 -10z"/>
<path d="M2071 1186 c8 -8 183 -76 186 -72 2 2 -37 20 -87 40 -84 34 -109 42
-99 32z"/>
<path d="M520 1129 c46 -16 89 -29 95 -28 5 0 -28 14 -75 30 -46 16 -89 29
-95 28 -5 0 28 -14 75 -30z"/>
<path d="M1991 1146 c8 -8 283 -116 286 -112 2 2 -59 29 -137 60 -130 52 -160
62 -149 52z"/>
<path d="M1899 1105 c52 -19 96 -33 98 -31 5 5 -164 66 -180 66 -7 -1 30 -16
82 -35z"/>
<path d="M875 1087 c66 -24 165 -66 220 -95 55 -28 91 -45 80 -36 -57 45 -364
176 -408 173 -7 0 42 -19 108 -42z"/>
<path d="M362 1115 c2 -3 117 -43 254 -89 262 -88 342 -120 445 -181 34 -20
57 -30 50 -21 -30 36 -249 130 -490 211 -255 85 -269 89 -259 80z"/>
<path d="M1695 1096 c50 -13 135 -40 189 -60 55 -19 101 -34 103 -32 11 10
-321 116 -361 116 -11 -1 20 -12 69 -24z"/>
<path d="M1031 1107 c2 -2 49 -27 104 -56 55 -28 92 -45 81 -37 -22 18 -171
96 -182 96 -4 0 -5 -1 -3 -3z"/>
<path d="M285 1071 c22 -10 51 -21 65 -25 14 -3 7 2 -15 13 -22 10 -51 21 -65
25 -14 3 -7 -2 15 -13z"/>
<path d="M705 1070 c28 -10 57 -18 65 -18 8 0 -7 8 -35 18 -27 10 -57 18 -65
18 -8 0 8 -8 35 -18z"/>
<path d="M2321 1085 c10 -9 223 -94 227 -90 3 2 -6 9 -19 14 -13 5 -64 25
-113 45 -88 35 -104 41 -95 31z"/>
<path d="M1544 1059 c118 -17 336 -88 520 -168 27 -12 51 -20 53 -18 5 5 -216
96 -318 131 -105 35 -237 66 -279 65 -25 -1 -19 -4 24 -10z"/>
<path d="M2011 1066 c8 -8 133 -56 136 -52 2 2 -26 15 -62 30 -62 25 -84 31
-74 22z"/>
<path d="M791 1046 c2 -3 41 -18 87 -35 46 -16 127 -53 180 -80 53 -28 88 -44
77 -35 -55 43 -378 184 -344 150z"/>
<path d="M412 1025 c2 -3 92 -34 199 -70 184 -62 442 -177 469 -209 9 -12 8
-20 -6 -41 l-17 -25 -31 21 c-93 62 -497 232 -513 215 -2 -2 54 -23 124 -47
124 -42 354 -149 401 -187 21 -16 22 -21 11 -45 -7 -15 -16 -27 -20 -27 -4 0
-28 14 -53 30 -69 47 -258 134 -391 180 -66 24 -176 64 -244 91 -69 27 -127
47 -129 45 -4 -5 149 -65 378 -148 168 -61 293 -120 387 -180 l51 -33 -13 -33
-14 -32 -71 46 c-94 61 -198 109 -405 187 -93 35 -215 83 -269 106 -54 23
-101 40 -103 37 -5 -5 211 -93 397 -163 174 -65 304 -126 392 -186 l66 -44 38
81 c21 45 41 82 46 84 4 2 8 8 8 13 0 5 41 77 91 160 83 139 98 172 70 155 -6
-4 -45 -65 -87 -135 l-77 -128 -43 29 c-80 53 -248 127 -443 192 -194 66 -209
70 -199 61z"/>
<path d="M2291 1027 c8 -10 152 -68 156 -63 2 2 -27 16 -64 31 -91 37 -99 39
-92 32z"/>
<path d="M1470 1004 c138 -21 281 -63 455 -134 54 -22 100 -38 102 -36 5 5
-225 95 -317 125 -96 30 -190 51 -230 49 -25 0 -28 -2 -10 -4z"/>
<path d="M2160 1007 c0 -2 70 -33 155 -68 85 -35 155 -69 155 -76 0 -7 6 -10
14 -7 17 7 11 31 -8 31 -7 0 -73 25 -148 56 -168 70 -168 70 -168 64z"/>
<path d="M2001 996 c8 -7 483 -205 486 -202 5 5 -32 21 -259 116 -197 81 -240
98 -227 86z"/>
<path d="M2560 983 c0 -5 4 -13 9 -18 11 -12 -4 -55 -18 -55 -6 0 -8 -6 -5
-14 3 -8 0 -25 -7 -38 -7 -13 -14 -25 -14 -28 -3 -19 -18 -50 -23 -50 -4 0 -8
-11 -8 -24 -2 -20 1 -22 11 -13 7 7 11 15 8 19 -2 5 2 20 10 35 16 30 40 85
41 93 1 3 7 19 15 37 11 28 11 34 -3 48 -9 9 -16 13 -16 8z"/>
<path d="M1271 911 c-35 -68 -133 -226 -142 -229 -5 -2 -7 -8 -4 -12 3 -5 -10
-31 -28 -57 -39 -55 -73 -118 -59 -109 5 3 31 37 58 76 26 38 51 70 55 70 3 0
9 8 12 19 2 10 37 73 77 140 51 86 70 125 62 133 -7 7 -17 -2 -31 -31z"/>
<path d="M1440 940 c30 -4 73 -10 95 -13 35 -5 33 -4 -10 7 -27 8 -70 14 -95
14 -45 -1 -45 -1 10 -8z"/>
<path d="M1675 886 c55 -19 140 -50 189 -70 49 -20 91 -34 93 -32 5 5 -233 98
-306 120 -95 28 -80 16 24 -18z"/>
<path d="M1401 879 c66 -9 195 -41 258 -64 24 -8 46 -13 48 -11 13 13 -272 87
-327 85 -26 -1 -21 -3 21 -10z"/>
<path d="M2140 861 c8 -5 71 -32 139 -61 173 -73 186 -81 184 -115 -1 -16 -8
-32 -15 -37 -7 -4 -10 -8 -6 -8 11 0 -13 -60 -24 -60 -5 0 -7 -4 -3 -9 7 -12
-15 -61 -27 -61 -5 0 -7 -4 -4 -9 3 -5 -4 -30 -15 -56 -11 -26 -19 -48 -17
-50 2 -3 28 53 57 123 30 70 60 140 67 156 15 31 19 54 7 43 -3 -4 -14 0 -23
8 -9 9 -86 45 -170 80 -141 60 -187 77 -150 56z"/>
<path d="M0 820 c0 -13 207 -110 555 -260 61 -26 160 -71 220 -100 61 -28 120
-56 133 -61 12 -5 22 -15 22 -24 0 -9 9 -15 21 -15 11 0 34 -9 50 -21 16 -11
34 -17 40 -13 6 3 21 2 32 -4 12 -6 101 -40 197 -76 96 -36 240 -90 320 -122
141 -54 253 -95 316 -115 32 -9 170 -12 144 -2 -8 3 -143 63 -300 133 -459
205 -579 247 -714 251 -41 1 -73 5 -71 9 15 24 -212 150 -420 233 -88 36 -227
93 -310 128 -136 57 -235 82 -235 59z m295 -110 c94 -39 188 -79 210 -89 22
-10 69 -31 105 -46 77 -32 340 -163 340 -169 0 -3 -53 20 -117 49 -65 29 -237
106 -383 170 -230 102 -388 177 -340 161 8 -2 92 -37 185 -76z m1110 -455 c93
-37 187 -75 210 -85 76 -34 290 -127 324 -140 19 -8 30 -15 24 -17 -11 -4
-432 146 -616 218 -56 22 -133 52 -172 66 -99 36 -155 62 -155 73 0 15 209
-47 385 -115z"/>
<path d="M2099 799 c35 -16 66 -28 68 -26 4 5 -114 57 -125 56 -4 0 22 -14 57
-30z"/>
<path d="M1440 801 c135 -31 138 -32 77 -11 -32 11 -81 22 -110 25 -40 4 -33
1 33 -14z"/>
<path d="M1755 781 c22 -10 51 -21 65 -25 14 -3 7 2 -15 13 -22 10 -51 21 -65
25 -14 3 -7 -2 15 -13z"/>
<path d="M1970 777 c8 -9 403 -177 407 -173 2 2 -83 40 -189 86 -211 90 -226
96 -218 87z"/>
<path d="M2180 767 c0 -2 46 -23 103 -47 56 -24 104 -46 107 -49 3 -3 12 -7
20 -9 37 -8 -13 19 -113 62 -109 46 -117 49 -117 43z"/>
<path d="M35 751 c6 -11 96 -53 101 -48 2 2 -22 15 -52 30 -31 15 -53 23 -49
18z"/>
<path d="M1325 751 c28 -5 66 -11 85 -15 30 -5 32 -5 11 4 -14 6 -52 13 -85
15 -61 4 -61 4 -11 -4z"/>
<path d="M1675 731 c22 -10 51 -21 65 -25 14 -3 7 2 -15 13 -22 10 -51 21 -65
25 -14 3 -7 -2 15 -13z"/>
<path d="M1850 747 c8 -9 263 -117 267 -113 2 2 -50 26 -116 55 -135 58 -158
67 -151 58z"/>
<path d="M150 696 c0 -3 30 -20 68 -37 37 -17 98 -46 135 -65 38 -19 74 -33
79 -32 6 2 -50 32 -123 67 -158 75 -159 75 -159 67z"/>
<path d="M1260 690 c8 -5 27 -10 41 -10 15 0 66 -11 113 -25 89 -26 120 -31
76 -14 -70 28 -261 69 -230 49z"/>
<path d="M1820 677 c8 -9 333 -147 337 -143 2 2 -66 33 -151 70 -170 73 -193
82 -186 73z"/>
<path d="M1691 647 c8 -10 152 -68 156 -63 2 2 -27 16 -64 31 -91 37 -99 39
-92 32z"/>
<path d="M1285 610 c49 -11 91 -18 93 -16 5 6 -133 36 -160 35 -13 0 17 -9 67
-19z"/>
<path d="M2130 627 c0 -2 45 -23 100 -47 55 -23 100 -45 100 -49 0 -4 9 -7 20
-7 29 0 15 8 -103 59 -106 46 -117 50 -117 44z"/>
<path d="M1439 569 c30 -10 56 -17 58 -15 5 5 -86 36 -101 35 -6 0 13 -9 43
-20z"/>
<path d="M450 556 c0 -4 26 -18 58 -32 228 -104 359 -170 392 -199 14 -12 43
-29 65 -39 22 -9 48 -22 58 -27 15 -8 140 -51 157 -53 6 -1 67 -24 95 -37 137
-58 449 -169 476 -168 33 0 33 1 -11 13 -51 14 -250 91 -517 199 -101 41 -184
69 -186 64 -2 -6 -24 1 -51 16 -27 15 -54 27 -62 27 -7 0 -15 8 -19 19 -4 13
-74 50 -222 117 -255 117 -233 107 -233 100z"/>
<path d="M1799 515 c29 -14 55 -24 58 -22 2 3 -15 12 -39 22 -69 28 -78 27
-19 0z"/>
<path d="M1425 491 c60 -22 111 -39 113 -37 4 5 -158 64 -195 71 -16 3 21 -12
82 -34z"/>
<path d="M2239 494 c40 -19 79 -34 85 -34 6 0 -24 16 -67 35 -43 19 -81 35
-85 34 -4 0 26 -16 67 -35z"/>
<path d="M1121 486 c2 -2 29 -6 59 -9 36 -4 46 -3 30 3 -25 8 -97 13 -89 6z"/>
<path d="M1871 487 c8 -10 212 -98 216 -93 2 2 -40 22 -94 46 -117 50 -130 55
-122 47z"/>
<path d="M1745 450 c33 -16 65 -29 70 -29 13 1 -107 57 -120 57 -5 0 17 -13
50 -28z"/>
<path d="M2149 449 c35 -16 66 -28 68 -26 4 5 -114 57 -125 56 -4 0 22 -14 57
-30z"/>
<path d="M1295 449 c32 -10 61 -16 63 -14 5 4 -97 35 -112 34 -6 0 16 -9 49
-20z"/>
<path d="M1599 425 c29 -14 55 -24 58 -22 2 3 -15 12 -39 22 -69 28 -78 27
-19 0z"/>
<path d="M1401 416 c8 -8 183 -76 186 -72 2 2 -37 20 -87 40 -84 34 -109 42
-99 32z"/>
<path d="M2155 360 c33 -16 65 -29 70 -29 13 1 -107 57 -120 57 -5 0 17 -13
50 -28z"/>
<path d="M2332 373 c-6 -2 -10 -8 -7 -13 6 -9 -15 -60 -24 -60 -3 0 -7 -12 -7
-28 -1 -23 2 -20 18 18 25 56 38 90 35 89 -1 0 -8 -3 -15 -6z"/>
<path d="M1809 335 c40 -20 75 -34 78 -32 2 2 -25 17 -59 32 -93 40 -104 40
-19 0z"/>
<path d="M1991 345 c11 -10 233 -104 237 -100 3 2 -6 9 -19 14 -13 5 -66 27
-118 50 -91 39 -110 46 -100 36z"/>
<path d="M1739 275 c40 -20 75 -34 78 -32 2 2 -25 17 -59 32 -93 40 -104 40
-19 0z"/>
<path d="M1969 265 c40 -20 75 -34 78 -32 2 2 -25 17 -59 32 -93 40 -104 40
-19 0z"/>
<path d="M2262 213 c3 -15 -14 -63 -23 -63 -5 0 -9 -7 -9 -16 0 -8 -11 -40
-25 -71 -14 -30 -23 -58 -20 -61 3 -4 8 4 12 16 3 12 9 22 14 22 5 0 9 7 9 16
0 14 30 89 50 126 13 23 13 38 0 38 -5 0 -9 -3 -8 -7z"/>
<path d="M1920 197 c9 -9 233 -107 237 -103 2 2 -45 25 -104 51 -123 54 -140
61 -133 52z"/>
</g>
</svg>
